# Blender v2.78 (sub 0) OBJ File: 'Gear.blend'
# www.blender.org
mtllib Gear.mtl
o Gear.002
v 0.676148 -0.100000 -0.181173
v 0.900000 -0.100000 0.000000
v 0.892300 -0.100000 -0.117474
v 0.869333 -0.100000 -0.232937
v 0.831492 -0.100000 -0.344415
v 0.991445 -0.100000 -0.130526
v 0.965926 -0.100000 -0.258819
v 0.923880 -0.100000 -0.382683
v 1.085245 -0.100000 -0.179566
v 1.062518 -0.100000 -0.284701
v 1.029633 -0.100000 -0.387113
v 0.700000 0.100000 0.000000
v 0.676148 0.100000 -0.181173
v 0.646716 0.100000 -0.267878
v 0.900000 0.100000 0.000000
v 0.892300 0.100000 -0.117474
v 0.869333 0.100000 -0.232937
v 0.831492 0.100000 -0.344415
v 0.991445 0.100000 -0.130526
v 0.965926 0.100000 -0.258819
v 0.923880 0.100000 -0.382683
v 1.085245 0.100000 -0.179566
v 1.062518 0.100000 -0.284701
v 1.029633 0.100000 -0.387113
v 0.555347 -0.100000 -0.426133
v 0.779423 -0.100000 -0.450000
v 0.714018 -0.100000 -0.547885
v 0.636396 -0.100000 -0.636396
v 0.547885 -0.100000 -0.714018
v 0.793353 -0.100000 -0.608761
v 0.707107 -0.100000 -0.707107
v 0.608761 -0.100000 -0.793353
v 0.850066 -0.100000 -0.698131
v 0.777817 -0.100000 -0.777817
v 0.698131 -0.100000 -0.850066
v 0.606218 0.100000 -0.350000
v 0.555347 0.100000 -0.426133
v 0.494975 0.100000 -0.494975
v 0.426133 0.100000 -0.555347
v 0.779423 0.100000 -0.450000
v 0.714018 0.100000 -0.547885
v 0.636396 0.100000 -0.636396
v 0.547885 0.100000 -0.714018
v 0.793353 0.100000 -0.608761
v 0.707107 0.100000 -0.707107
v 0.608761 0.100000 -0.793353
v 0.850066 0.100000 -0.698131
v 0.777817 0.100000 -0.777817
v 0.698131 0.100000 -0.850066
v 0.267878 -0.100000 -0.646716
v 0.181173 -0.100000 -0.676148
v 0.091368 -0.100000 -0.694011
v 0.450000 -0.100000 -0.779423
v 0.344415 -0.100000 -0.831492
v 0.232937 -0.100000 -0.869333
v 0.117474 -0.100000 -0.892300
v 0.382683 -0.100000 -0.923880
v 0.258819 -0.100000 -0.965926
v 0.130526 -0.100000 -0.991445
v 0.387113 -0.100000 -1.029633
v 0.284701 -0.100000 -1.062518
v 0.179566 -0.100000 -1.085245
v 0.350000 0.100000 -0.606218
v 0.267878 0.100000 -0.646716
v 0.181173 0.100000 -0.676148
v 0.450000 0.100000 -0.779423
v 0.344415 0.100000 -0.831492
v 0.232937 0.100000 -0.869333
v 0.117474 0.100000 -0.892300
v 0.382683 0.100000 -0.923880
v 0.258819 0.100000 -0.965926
v 0.130526 0.100000 -0.991445
v 0.387113 0.100000 -1.029633
v 0.284701 0.100000 -1.062518
v 0.179566 0.100000 -1.085245
v 0.000000 -0.100000 -0.900000
v -0.117474 -0.100000 -0.892300
v -0.232937 -0.100000 -0.869333
v -0.344415 -0.100000 -0.831492
v -0.130526 -0.100000 -0.991445
v -0.258819 -0.100000 -0.965926
v -0.382683 -0.100000 -0.923880
v -0.179566 -0.100000 -1.085245
v -0.284701 -0.100000 -1.062518
v -0.387113 -0.100000 -1.029633
v -0.181173 0.100000 -0.676148
v 0.000000 0.100000 -0.900000
v -0.117474 0.100000 -0.892300
v -0.232937 0.100000 -0.869333
v -0.344415 0.100000 -0.831492
v -0.130526 0.100000 -0.991445
v -0.258819 0.100000 -0.965926
v -0.382683 0.100000 -0.923880
v -0.179566 0.100000 -1.085245
v -0.284701 0.100000 -1.062518
v -0.387113 0.100000 -1.029633
v -0.555347 -0.100000 -0.426133
v -0.450000 -0.100000 -0.779423
v -0.547885 -0.100000 -0.714018
v -0.636396 -0.100000 -0.636396
v -0.714018 -0.100000 -0.547885
v -0.608761 -0.100000 -0.793353
v -0.707107 -0.100000 -0.707107
v -0.793353 -0.100000 -0.608761
v -0.698131 -0.100000 -0.850066
v -0.777817 -0.100000 -0.777817
v -0.850066 -0.100000 -0.698131
v -0.350000 0.100000 -0.606218
v -0.555347 0.100000 -0.426133
v -0.450000 0.100000 -0.779423
v -0.547885 0.100000 -0.714018
v -0.636396 0.100000 -0.636396
v -0.714018 0.100000 -0.547885
v -0.608761 0.100000 -0.793353
v -0.707107 0.100000 -0.707107
v -0.793353 0.100000 -0.608761
v -0.698131 0.100000 -0.850066
v -0.777817 0.100000 -0.777817
v -0.850066 0.100000 -0.698131
v -0.694011 -0.100000 -0.091368
v -0.779423 -0.100000 -0.450000
v -0.831492 -0.100000 -0.344415
v -0.869333 -0.100000 -0.232937
v -0.892300 -0.100000 -0.117474
v -0.923880 -0.100000 -0.382683
v -0.965926 -0.100000 -0.258819
v -0.991445 -0.100000 -0.130526
v -1.029633 -0.100000 -0.387113
v -1.062518 -0.100000 -0.284701
v -1.085245 -0.100000 -0.179566
v -0.676148 0.100000 -0.181173
v -0.779423 0.100000 -0.450000
v -0.831492 0.100000 -0.344415
v -0.869333 0.100000 -0.232937
v -0.892300 0.100000 -0.117474
v -0.923880 0.100000 -0.382683
v -0.965926 0.100000 -0.258819
v -0.991445 0.100000 -0.130526
v -1.029633 0.100000 -0.387113
v -1.062518 0.100000 -0.284701
v -1.085245 0.100000 -0.179566
v -0.900000 -0.100000 -0.000000
v -0.892300 -0.100000 0.117474
v -0.869333 -0.100000 0.232937
v -0.831492 -0.100000 0.344415
v -0.991445 -0.100000 0.130526
v -0.965926 -0.100000 0.258819
v -0.923880 -0.100000 0.382683
v -1.085245 -0.100000 0.179566
v -1.062518 -0.100000 0.284701
v -1.029633 -0.100000 0.387113
v -0.700000 0.100000 -0.000000
v -0.694011 0.100000 0.091368
v -0.676148 0.100000 0.181173
v -0.646716 0.100000 0.267878
v -0.900000 0.100000 -0.000000
v -0.892300 0.100000 0.117474
v -0.869333 0.100000 0.232937
v -0.831492 0.100000 0.344415
v -0.991445 0.100000 0.130526
v -0.965926 0.100000 0.258819
v -0.923880 0.100000 0.382683
v -1.085245 0.100000 0.179566
v -1.062518 0.100000 0.284701
v -1.029633 0.100000 0.387113
v -0.555347 -0.100000 0.426133
v -0.779423 -0.100000 0.450000
v -0.714018 -0.100000 0.547885
v -0.636396 -0.100000 0.636396
v -0.547885 -0.100000 0.714018
v -0.793353 -0.100000 0.608761
v -0.707107 -0.100000 0.707107
v -0.608761 -0.100000 0.793353
v -0.850066 -0.100000 0.698131
v -0.777817 -0.100000 0.777817
v -0.698131 -0.100000 0.850066
v -0.555347 0.100000 0.426133
v -0.426133 0.100000 0.555347
v -0.779423 0.100000 0.450000
v -0.714018 0.100000 0.547885
v -0.636396 0.100000 0.636396
v -0.547885 0.100000 0.714018
v -0.793353 0.100000 0.608761
v -0.707107 0.100000 0.707107
v -0.608761 0.100000 0.793353
v -0.850066 0.100000 0.698131
v -0.777817 0.100000 0.777817
v -0.698131 0.100000 0.850066
v -0.450000 -0.100000 0.779423
v -0.344415 -0.100000 0.831492
v -0.232937 -0.100000 0.869333
v -0.117474 -0.100000 0.892300
v -0.382683 -0.100000 0.923880
v -0.258819 -0.100000 0.965926
v -0.130526 -0.100000 0.991445
v -0.387113 -0.100000 1.029633
v -0.284701 -0.100000 1.062518
v -0.179566 -0.100000 1.085245
v -0.267878 0.100000 0.646716
v -0.181173 0.100000 0.676148
v -0.450000 0.100000 0.779423
v -0.344415 0.100000 0.831492
v -0.232937 0.100000 0.869333
v -0.117474 0.100000 0.892300
v -0.382683 0.100000 0.923880
v -0.258819 0.100000 0.965926
v -0.130526 0.100000 0.991445
v -0.387113 0.100000 1.029633
v -0.284701 0.100000 1.062518
v -0.179566 0.100000 1.085245
v 0.091368 -0.100000 0.694011
v -0.000000 -0.100000 0.900000
v 0.117474 -0.100000 0.892300
v 0.232937 -0.100000 0.869333
v 0.344415 -0.100000 0.831492
v 0.130526 -0.100000 0.991445
v 0.258819 -0.100000 0.965926
v 0.382683 -0.100000 0.923880
v 0.179566 -0.100000 1.085245
v 0.284701 -0.100000 1.062518
v 0.387113 -0.100000 1.029633
v -0.000000 0.100000 0.700000
v 0.181173 0.100000 0.676148
v -0.000000 0.100000 0.900000
v 0.117474 0.100000 0.892300
v 0.232937 0.100000 0.869333
v 0.344415 0.100000 0.831492
v 0.130526 0.100000 0.991445
v 0.258819 0.100000 0.965926
v 0.382683 0.100000 0.923880
v 0.179566 0.100000 1.085245
v 0.284701 0.100000 1.062518
v 0.387113 0.100000 1.029633
v 0.350000 -0.100000 0.606218
v 0.494975 -0.100000 0.494975
v 0.450000 -0.100000 0.779423
v 0.547885 -0.100000 0.714018
v 0.636396 -0.100000 0.636396
v 0.714018 -0.100000 0.547885
v 0.608761 -0.100000 0.793353
v 0.707107 -0.100000 0.707107
v 0.793353 -0.100000 0.608761
v 0.698131 -0.100000 0.850066
v 0.777817 -0.100000 0.777817
v 0.850066 -0.100000 0.698131
v 0.426133 0.100000 0.555347
v 0.555347 0.100000 0.426133
v 0.450000 0.100000 0.779423
v 0.547885 0.100000 0.714018
v 0.636396 0.100000 0.636396
v 0.714018 0.100000 0.547885
v 0.608761 0.100000 0.793353
v 0.707107 0.100000 0.707107
v 0.793353 0.100000 0.608761
v 0.698131 0.100000 0.850066
v 0.777817 0.100000 0.777817
v 0.850066 0.100000 0.698131
v 0.646716 -0.100000 0.267878
v 0.676148 -0.100000 0.181173
v 0.779423 -0.100000 0.450000
v 0.831492 -0.100000 0.344415
v 0.869333 -0.100000 0.232937
v 0.892300 -0.100000 0.117474
v 0.923880 -0.100000 0.382683
v 0.965926 -0.100000 0.258819
v 0.991445 -0.100000 0.130526
v 1.029633 -0.100000 0.387113
v 1.062518 -0.100000 0.284701
v 1.085245 -0.100000 0.179566
v 0.694011 0.100000 0.091368
v 0.779423 0.100000 0.450000
v 0.831492 0.100000 0.344415
v 0.869333 0.100000 0.232937
v 0.892300 0.100000 0.117474
v 0.923880 0.100000 0.382683
v 0.965926 0.100000 0.258819
v 0.991445 0.100000 0.130526
v 1.029633 0.100000 0.387113
v 1.062518 0.100000 0.284701
v 1.085245 0.100000 0.179566
v 0.000000 -0.100000 -0.700000
v -0.350000 -0.100000 -0.606218
v -0.606218 -0.100000 -0.350000
v -0.700000 -0.100000 -0.000000
v -0.646716 -0.100000 0.267878
v -0.606218 -0.100000 0.350000
v -0.350000 -0.100000 0.606218
v -0.000000 -0.100000 0.700000
v 0.606218 -0.100000 0.350000
v 0.694011 0.100000 -0.091368
v 0.091368 0.100000 -0.694011
v 0.000000 0.100000 -0.700000
v -0.091368 0.100000 -0.694011
v -0.267878 0.100000 -0.646716
v -0.426133 0.100000 -0.555347
v -0.494975 0.100000 -0.494975
v -0.606218 0.100000 -0.350000
v -0.646716 0.100000 -0.267878
v -0.694011 0.100000 -0.091368
v -0.606218 0.100000 0.350000
v -0.494975 0.100000 0.494975
v -0.350000 0.100000 0.606218
v -0.091368 0.100000 0.694011
v 0.091368 0.100000 0.694011
v 0.267878 0.100000 0.646716
v 0.350000 0.100000 0.606218
v 0.494975 0.100000 0.494975
v 0.606218 0.100000 0.350000
v 0.646716 0.100000 0.267878
v 0.676148 0.100000 0.181173
v -0.091368 -0.100000 -0.694011
v -0.181173 -0.100000 -0.676148
v -0.267878 -0.100000 -0.646716
v -0.676148 -0.100000 -0.181173
v -0.426133 -0.100000 0.555347
v -0.267878 -0.100000 0.646716
v -0.091368 -0.100000 0.694011
v 0.181173 -0.100000 0.676148
v 0.426133 -0.100000 0.555347
v 0.694011 -0.100000 0.091368
v 0.700000 -0.100000 0.000000
v 0.694011 -0.100000 -0.091368
v 0.646716 -0.100000 -0.267878
v 0.606218 -0.100000 -0.350000
v 0.494975 -0.100000 -0.494975
v 0.426133 -0.100000 -0.555347
v 0.350000 -0.100000 -0.606218
v -0.426133 -0.100000 -0.555347
v -0.494975 -0.100000 -0.494975
v -0.646716 -0.100000 -0.267878
v -0.694011 -0.100000 0.091368
v -0.676148 -0.100000 0.181173
v -0.494975 -0.100000 0.494975
v -0.181173 -0.100000 0.676148
v 0.267878 -0.100000 0.646716
v 0.555347 -0.100000 0.426133
vn 0.0000 -1.0000 0.0000
vn 0.0000 1.0000 0.0000
vn 0.9979 0.0000 -0.0654
vn 0.1305 0.0000 0.9914
vn 0.4633 0.0000 0.8862
vn 0.9774 0.0000 -0.2113
vn 0.9521 0.0000 -0.3057
vn -0.0419 0.0000 -0.9991
vn -0.3827 0.0000 -0.9239
vn 0.8315 0.0000 -0.5556
vn 0.6088 0.0000 0.7934
vn 0.8443 0.0000 0.5358
vn 0.7408 0.0000 -0.6717
vn 0.6717 0.0000 -0.7408
vn -0.5358 0.0000 -0.8443
vn -0.7934 0.0000 -0.6088
vn 0.8969 0.0000 -0.4423
vn 0.4423 0.0000 -0.8969
vn 0.9239 0.0000 0.3827
vn 0.9991 0.0000 0.0419
vn 0.3057 0.0000 -0.9521
vn 0.2113 0.0000 -0.9774
vn -0.8862 0.0000 -0.4633
vn -0.9914 0.0000 -0.1305
vn 0.5556 0.0000 -0.8315
vn -0.0654 0.0000 -0.9979
vn 0.9914 0.0000 -0.1305
vn 0.8862 0.0000 -0.4633
vn -0.2113 0.0000 -0.9774
vn -0.3057 0.0000 -0.9521
vn -0.9991 0.0000 0.0419
vn -0.9239 0.0000 0.3827
vn 0.0654 0.0000 -0.9979
vn -0.5556 0.0000 -0.8315
vn 0.7934 0.0000 -0.6088
vn 0.5358 0.0000 -0.8443
vn -0.6717 0.0000 -0.7408
vn -0.7408 0.0000 -0.6717
vn -0.8443 0.0000 0.5358
vn -0.6088 0.0000 0.7934
vn -0.4423 0.0000 -0.8969
vn -0.8969 0.0000 -0.4423
vn 0.3827 0.0000 -0.9239
vn 0.0419 0.0000 -0.9991
vn -0.9521 0.0000 -0.3057
vn -0.9774 0.0000 -0.2113
vn -0.4633 0.0000 0.8862
vn -0.1305 0.0000 0.9914
vn -0.8315 0.0000 -0.5556
vn -0.9979 0.0000 0.0654
vn -0.1305 0.0000 -0.9914
vn -0.4633 0.0000 -0.8862
vn -0.9774 0.0000 0.2113
vn -0.9521 0.0000 0.3057
vn 0.0419 0.0000 0.9991
vn 0.3827 0.0000 0.9239
vn -0.9979 0.0000 -0.0654
vn -0.8315 0.0000 0.5556
vn -0.6088 0.0000 -0.7934
vn -0.8443 0.0000 -0.5358
vn -0.7408 0.0000 0.6717
vn -0.6717 0.0000 0.7408
vn 0.5358 0.0000 0.8443
vn 0.7934 0.0000 0.6088
vn -0.8969 0.0000 0.4423
vn -0.4423 0.0000 0.8969
vn -0.9239 0.0000 -0.3827
vn -0.9991 0.0000 -0.0419
vn -0.3057 0.0000 0.9521
vn -0.2113 0.0000 0.9774
vn 0.8862 0.0000 0.4633
vn 0.9914 0.0000 0.1305
vn -0.5556 0.0000 0.8315
vn 0.0654 0.0000 0.9979
vn -0.9914 0.0000 0.1305
vn -0.8862 0.0000 0.4633
vn 0.2113 0.0000 0.9774
vn 0.3057 0.0000 0.9521
vn 0.9991 0.0000 -0.0419
vn 0.9239 0.0000 -0.3827
vn -0.0654 0.0000 0.9979
vn 0.5556 0.0000 0.8315
vn -0.7934 0.0000 0.6088
vn -0.5358 0.0000 0.8443
vn 0.6717 0.0000 0.7408
vn 0.7408 0.0000 0.6717
vn 0.8443 0.0000 -0.5358
vn 0.6088 0.0000 -0.7934
vn 0.4423 0.0000 0.8969
vn 0.8969 0.0000 0.4423
vn -0.3827 0.0000 0.9239
vn -0.0419 0.0000 0.9991
vn 0.9521 0.0000 0.3057
vn 0.9774 0.0000 0.2113
vn 0.4633 0.0000 -0.8862
vn 0.1305 0.0000 -0.9914
vn 0.8315 0.0000 0.5556
vn 0.9979 0.0000 0.0654
vn 0.5879 -0.7260 -0.3567
vn 0.6324 -0.7263 -0.2693
vn 0.6061 0.7181 -0.3419
vn -0.4130 -0.7263 0.5494
vn -0.4832 -0.7300 0.4832
vn -0.4930 0.7168 0.4930
vn -0.3539 0.7181 0.5992
vn -0.6376 -0.7263 0.2567
vn -0.6680 -0.7260 0.1635
vn -0.6703 0.7181 0.1867
vn 0.0150 -0.7260 -0.6875
vn 0.0964 -0.7263 -0.6805
vn 0.1734 0.7181 -0.6739
vn -0.0069 0.7181 -0.6959
vn -0.5494 -0.7263 0.4130
vn -0.6029 -0.7260 0.3308
vn -0.5992 0.7181 0.3539
vn 0.1924 -0.7260 -0.6602
vn 0.2693 -0.7263 -0.6324
vn 0.3419 0.7181 -0.6061
vn 0.1924 -0.7260 0.6602
vn 0.0964 -0.7263 0.6805
vn 0.1734 0.7181 0.6739
vn 0.0150 -0.7260 0.6875
vn -0.0069 0.7181 0.6959
vn -0.1635 -0.7260 -0.6680
vn -0.0829 -0.7263 -0.6823
vn -0.1867 0.7181 -0.6703
vn 0.6602 -0.7260 -0.1924
vn 0.6739 0.7181 -0.1734
vn 0.6875 -0.7260 -0.0150
vn 0.6823 -0.7263 0.0829
vn 0.6959 0.7181 0.0069
vn 0.5494 -0.7263 0.4130
vn 0.4967 -0.7260 0.4755
vn 0.4871 0.7181 0.4969
vn 0.5992 0.7181 0.3539
vn 0.6805 -0.7263 -0.0964
vn 0.3567 -0.7260 0.5879
vn 0.2693 -0.7263 0.6324
vn 0.3419 0.7181 0.6061
vn -0.6324 -0.7263 -0.2693
vn -0.5879 -0.7260 -0.3567
vn -0.6061 0.7181 -0.3419
vn -0.3308 -0.7260 0.6029
vn 0.6376 -0.7263 0.2567
vn 0.6029 -0.7260 0.3308
vn 0.6703 0.7181 0.1867
vn -0.3308 -0.7260 -0.6029
vn -0.2567 -0.7263 -0.6376
vn -0.3539 0.7181 -0.5992
vn -0.4755 -0.7260 -0.4967
vn -0.4130 -0.7263 -0.5494
vn -0.4969 0.7181 -0.4871
vn -0.6805 -0.7263 -0.0964
vn -0.6602 -0.7260 -0.1924
vn -0.6739 0.7181 -0.1734
vn 0.4238 -0.7263 0.5411
vn 0.5411 -0.7263 -0.4238
vn 0.4911 0.7195 -0.4911
vn -0.6823 -0.7263 0.0829
vn -0.6875 -0.7260 -0.0150
vn -0.6959 0.7181 0.0069
vn -0.1635 -0.7260 0.6680
vn -0.2567 -0.7263 0.6376
vn -0.1867 0.7181 0.6703
vn 0.6680 -0.7260 0.1635
vn -0.5411 -0.7263 -0.4238
vn 0.3567 -0.7260 -0.5879
vn 0.4238 -0.7263 -0.5411
vn 0.4891 -0.7221 -0.4891
vn -0.0829 -0.7263 0.6823
usemtl None
s off
f 2//1 321//1 322//1 3//1
f 3//1 322//1 1//1 4//1
f 4//1 1//1 323//1 5//1
f 6//1 3//1 4//1 7//1
f 7//1 4//1 5//1 8//1
f 9//1 6//1 7//1 10//1
f 10//1 7//1 8//1 11//1
f 12//2 15//2 16//2 290//2
f 290//2 16//2 17//2 13//2
f 13//2 17//2 18//2 14//2
f 16//2 19//2 20//2 17//2
f 17//2 20//2 21//2 18//2
f 19//2 22//2 23//2 20//2
f 20//2 23//2 24//2 21//2
f 15//3 2//3 3//3 16//3
f 16//4 3//4 6//4 19//4
f 19//5 6//5 9//5 22//5
f 22//6 9//6 10//6 23//6
f 23//7 10//7 11//7 24//7
f 24//8 11//8 8//8 21//8
f 21//9 8//9 5//9 18//9
f 26//1 324//1 25//1 27//1
f 27//1 25//1 325//1 28//1
f 28//1 325//1 326//1 29//1
f 30//1 27//1 28//1 31//1
f 31//1 28//1 29//1 32//1
f 33//1 30//1 31//1 34//1
f 34//1 31//1 32//1 35//1
f 36//2 40//2 41//2 37//2
f 37//2 41//2 42//2 38//2
f 38//2 42//2 43//2 39//2
f 41//2 44//2 45//2 42//2
f 42//2 45//2 46//2 43//2
f 44//2 47//2 48//2 45//2
f 45//2 48//2 49//2 46//2
f 40//10 26//10 27//10 41//10
f 41//11 27//11 30//11 44//11
f 44//12 30//12 33//12 47//12
f 47//13 33//13 34//13 48//13
f 48//14 34//14 35//14 49//14
f 49//15 35//15 32//15 46//15
f 46//16 32//16 29//16 43//16
f 323//1 324//1 26//1 5//1
f 5//17 26//17 40//17 18//17
f 18//2 40//2 36//2 14//2
f 53//1 327//1 50//1 54//1
f 54//1 50//1 51//1 55//1
f 55//1 51//1 52//1 56//1
f 57//1 54//1 55//1 58//1
f 58//1 55//1 56//1 59//1
f 60//1 57//1 58//1 61//1
f 61//1 58//1 59//1 62//1
f 63//2 66//2 67//2 64//2
f 64//2 67//2 68//2 65//2
f 65//2 68//2 69//2 291//2
f 67//2 70//2 71//2 68//2
f 68//2 71//2 72//2 69//2
f 70//2 73//2 74//2 71//2
f 71//2 74//2 75//2 72//2
f 66//18 53//18 54//18 67//18
f 67//19 54//19 57//19 70//19
f 70//20 57//20 60//20 73//20
f 73//21 60//21 61//21 74//21
f 74//22 61//22 62//22 75//22
f 75//23 62//23 59//23 72//23
f 72//24 59//24 56//24 69//24
f 326//1 327//1 53//1 29//1
f 29//25 53//25 66//25 43//25
f 43//2 66//2 63//2 39//2
f 76//1 281//1 311//1 77//1
f 77//1 311//1 312//1 78//1
f 78//1 312//1 313//1 79//1
f 80//1 77//1 78//1 81//1
f 81//1 78//1 79//1 82//1
f 83//1 80//1 81//1 84//1
f 84//1 81//1 82//1 85//1
f 292//2 87//2 88//2 293//2
f 293//2 88//2 89//2 86//2
f 86//2 89//2 90//2 294//2
f 88//2 91//2 92//2 89//2
f 89//2 92//2 93//2 90//2
f 91//2 94//2 95//2 92//2
f 92//2 95//2 96//2 93//2
f 87//26 76//26 77//26 88//26
f 88//27 77//27 80//27 91//27
f 91//28 80//28 83//28 94//28
f 94//29 83//29 84//29 95//29
f 95//30 84//30 85//30 96//30
f 96//31 85//31 82//31 93//31
f 93//32 82//32 79//32 90//32
f 52//1 281//1 76//1 56//1
f 56//33 76//33 87//33 69//33
f 69//2 87//2 292//2 291//2
f 98//1 282//1 328//1 99//1
f 99//1 328//1 329//1 100//1
f 100//1 329//1 97//1 101//1
f 102//1 99//1 100//1 103//1
f 103//1 100//1 101//1 104//1
f 105//1 102//1 103//1 106//1
f 106//1 103//1 104//1 107//1
f 108//2 110//2 111//2 295//2
f 295//2 111//2 112//2 296//2
f 296//2 112//2 113//2 109//2
f 111//2 114//2 115//2 112//2
f 112//2 115//2 116//2 113//2
f 114//2 117//2 118//2 115//2
f 115//2 118//2 119//2 116//2
f 110//34 98//34 99//34 111//34
f 111//35 99//35 102//35 114//35
f 114//36 102//36 105//36 117//36
f 117//37 105//37 106//37 118//37
f 118//38 106//38 107//38 119//38
f 119//39 107//39 104//39 116//39
f 116//40 104//40 101//40 113//40
f 313//1 282//1 98//1 79//1
f 79//41 98//41 110//41 90//41
f 90//2 110//2 108//2 294//2
f 121//1 283//1 330//1 122//1
f 122//1 330//1 314//1 123//1
f 123//1 314//1 120//1 124//1
f 125//1 122//1 123//1 126//1
f 126//1 123//1 124//1 127//1
f 128//1 125//1 126//1 129//1
f 129//1 126//1 127//1 130//1
f 297//2 132//2 133//2 298//2
f 298//2 133//2 134//2 131//2
f 131//2 134//2 135//2 299//2
f 133//2 136//2 137//2 134//2
f 134//2 137//2 138//2 135//2
f 136//2 139//2 140//2 137//2
f 137//2 140//2 141//2 138//2
f 132//42 121//42 122//42 133//42
f 133//43 122//43 125//43 136//43
f 136//44 125//44 128//44 139//44
f 139//45 128//45 129//45 140//45
f 140//46 129//46 130//46 141//46
f 141//47 130//47 127//47 138//47
f 138//48 127//48 124//48 135//48
f 97//1 283//1 121//1 101//1
f 101//49 121//49 132//49 113//49
f 113//2 132//2 297//2 109//2
f 142//1 284//1 331//1 143//1
f 143//1 331//1 332//1 144//1
f 144//1 332//1 285//1 145//1
f 146//1 143//1 144//1 147//1
f 147//1 144//1 145//1 148//1
f 149//1 146//1 147//1 150//1
f 150//1 147//1 148//1 151//1
f 152//2 156//2 157//2 153//2
f 153//2 157//2 158//2 154//2
f 154//2 158//2 159//2 155//2
f 157//2 160//2 161//2 158//2
f 158//2 161//2 162//2 159//2
f 160//2 163//2 164//2 161//2
f 161//2 164//2 165//2 162//2
f 156//50 142//50 143//50 157//50
f 157//51 143//51 146//51 160//51
f 160//52 146//52 149//52 163//52
f 163//53 149//53 150//53 164//53
f 164//54 150//54 151//54 165//54
f 165//55 151//55 148//55 162//55
f 162//56 148//56 145//56 159//56
f 120//1 284//1 142//1 124//1
f 124//57 142//57 156//57 135//57
f 135//2 156//2 152//2 299//2
f 167//1 286//1 166//1 168//1
f 168//1 166//1 333//1 169//1
f 169//1 333//1 315//1 170//1
f 171//1 168//1 169//1 172//1
f 172//1 169//1 170//1 173//1
f 174//1 171//1 172//1 175//1
f 175//1 172//1 173//1 176//1
f 300//2 179//2 180//2 177//2
f 177//2 180//2 181//2 301//2
f 301//2 181//2 182//2 178//2
f 180//2 183//2 184//2 181//2
f 181//2 184//2 185//2 182//2
f 183//2 186//2 187//2 184//2
f 184//2 187//2 188//2 185//2
f 179//58 167//58 168//58 180//58
f 180//59 168//59 171//59 183//59
f 183//60 171//60 174//60 186//60
f 186//61 174//61 175//61 187//61
f 187//62 175//62 176//62 188//62
f 188//63 176//63 173//63 185//63
f 185//64 173//64 170//64 182//64
f 285//1 286//1 167//1 145//1
f 145//65 167//65 179//65 159//65
f 159//2 179//2 300//2 155//2
f 189//1 287//1 316//1 190//1
f 190//1 316//1 334//1 191//1
f 191//1 334//1 317//1 192//1
f 193//1 190//1 191//1 194//1
f 194//1 191//1 192//1 195//1
f 196//1 193//1 194//1 197//1
f 197//1 194//1 195//1 198//1
f 302//2 201//2 202//2 199//2
f 199//2 202//2 203//2 200//2
f 200//2 203//2 204//2 303//2
f 202//2 205//2 206//2 203//2
f 203//2 206//2 207//2 204//2
f 205//2 208//2 209//2 206//2
f 206//2 209//2 210//2 207//2
f 201//66 189//66 190//66 202//66
f 202//67 190//67 193//67 205//67
f 205//68 193//68 196//68 208//68
f 208//69 196//69 197//69 209//69
f 209//70 197//70 198//70 210//70
f 210//71 198//71 195//71 207//71
f 207//72 195//72 192//72 204//72
f 315//1 287//1 189//1 170//1
f 170//73 189//73 201//73 182//73
f 182//2 201//2 302//2 178//2
f 212//1 288//1 211//1 213//1
f 213//1 211//1 318//1 214//1
f 214//1 318//1 335//1 215//1
f 216//1 213//1 214//1 217//1
f 217//1 214//1 215//1 218//1
f 219//1 216//1 217//1 220//1
f 220//1 217//1 218//1 221//1
f 222//2 224//2 225//2 304//2
f 304//2 225//2 226//2 223//2
f 223//2 226//2 227//2 305//2
f 225//2 228//2 229//2 226//2
f 226//2 229//2 230//2 227//2
f 228//2 231//2 232//2 229//2
f 229//2 232//2 233//2 230//2
f 224//74 212//74 213//74 225//74
f 225//75 213//75 216//75 228//75
f 228//76 216//76 219//76 231//76
f 231//77 219//77 220//77 232//77
f 232//78 220//78 221//78 233//78
f 233//79 221//79 218//79 230//79
f 230//80 218//80 215//80 227//80
f 317//1 288//1 212//1 192//1
f 192//81 212//81 224//81 204//81
f 204//2 224//2 222//2 303//2
f 236//1 234//1 319//1 237//1
f 237//1 319//1 235//1 238//1
f 238//1 235//1 336//1 239//1
f 240//1 237//1 238//1 241//1
f 241//1 238//1 239//1 242//1
f 243//1 240//1 241//1 244//1
f 244//1 241//1 242//1 245//1
f 306//2 248//2 249//2 246//2
f 246//2 249//2 250//2 307//2
f 307//2 250//2 251//2 247//2
f 249//2 252//2 253//2 250//2
f 250//2 253//2 254//2 251//2
f 252//2 255//2 256//2 253//2
f 253//2 256//2 257//2 254//2
f 248//82 236//82 237//82 249//82
f 249//83 237//83 240//83 252//83
f 252//84 240//84 243//84 255//84
f 255//85 243//85 244//85 256//85
f 256//86 244//86 245//86 257//86
f 257//87 245//87 242//87 254//87
f 254//88 242//88 239//88 251//88
f 335//1 234//1 236//1 215//1
f 215//89 236//89 248//89 227//89
f 227//2 248//2 306//2 305//2
f 260//1 289//1 258//1 261//1
f 261//1 258//1 259//1 262//1
f 262//1 259//1 320//1 263//1
f 264//1 261//1 262//1 265//1
f 265//1 262//1 263//1 266//1
f 267//1 264//1 265//1 268//1
f 268//1 265//1 266//1 269//1
f 308//2 271//2 272//2 309//2
f 309//2 272//2 273//2 310//2
f 310//2 273//2 274//2 270//2
f 272//2 275//2 276//2 273//2
f 273//2 276//2 277//2 274//2
f 275//2 278//2 279//2 276//2
f 276//2 279//2 280//2 277//2
f 271//90 260//90 261//90 272//90
f 272//91 261//91 264//91 275//91
f 275//92 264//92 267//92 278//92
f 278//93 267//93 268//93 279//93
f 279//94 268//94 269//94 280//94
f 280//95 269//95 266//95 277//95
f 277//96 266//96 263//96 274//96
f 336//1 289//1 260//1 239//1
f 239//97 260//97 271//97 251//97
f 251//2 271//2 308//2 247//2
f 320//1 321//1 2//1 263//1
f 263//98 2//98 15//98 274//98
f 274//2 15//2 12//2 270//2
s 1
f 286//99 285//100 300//101
f 326//102 325//103 38//104 63//105
f 323//106 1//107 13//108
f 288//109 317//110 200//111 222//112
f 25//113 324//114 36//115
f 334//116 316//117 302//118 200//111
f 312//119 311//120 86//121
f 311//120 281//122 292//123 86//121
f 318//124 211//125 222//112 223//126
f 285//100 332//127 154//128 300//101
f 284//129 120//130 152//131
f 97//132 329//133 296//134 297//135
f 331//136 284//129 152//131 154//128
f 282//137 313//138 108//139
f 258//140 289//141 308//142
f 327//143 326//102 63//105
f 324//114 323//106 13//108 36//115
f 330//144 283//145 297//135 131//146
f 234//147 335//148 223//126 306//149
f 235//150 319//151 306//149 307//152
f 320//153 259//154 310//155
f 329//133 328//156 296//134
f 166//157 286//99 300//101 301//158
f 322//159 321//160 12//161
f 283//145 97//132 297//135
f 51//162 50//163 65//164
f 325//103 25//113 36//115 38//104
f 120//130 314//165 131//146 152//131
f 319//151 234//147 306//149
f 336//166 235//150 307//152
f 317//110 334//116 200//111
f 289//141 336//166 307//152 308//142
f 316//117 287//167 302//118
f 287//167 315//168 301//158 302//118
f 315//168 333//169 301//158
f 314//165 330//144 131//146
f 1//107 322//159 12//161 13//108
f 211//125 288//109 222//112
f 328//156 282//137 108//139 296//134
f 321//160 320//153 310//155 12//161
f 313//138 312//119 86//121 108//139
f 281//122 52//170 292//123
f 259//154 258//140 308//142 310//155
f 335//148 318//124 223//126
f 50//163 327//143 63//105 65//164
f 52//170 51//162 65//164 292//123
f 332//127 331//136 154//128
f 333//169 166//157 301//158
